<?xml version="1.0" encoding="iso-8859-1"?>
<!-- Generator: Adobe Illustrator 19.0.0, SVG Export Plug-In . SVG Version: 6.00 Build 0)  -->
<svg version="1.1" id="Capa_1" xmlns="http://www.w3.org/2000/svg" xmlns:xlink="http://www.w3.org/1999/xlink" x="0px" y="0px"
	 viewBox="0 0 511.997 511.997" style="enable-background:new 0 0 511.997 511.997;" xml:space="preserve">
<path style="fill:#FAC176;" d="M505.82,336.914c6.833-5.667,8.218-15.713,3.046-22.925c-11.061-15.404-20.233-19.068-58.659,1.139
	l-76.57,46.804c-23.402,12.438-84.807,8.828-111.298,8.828c0,0,62.517,4.237,37.57-33.006c-12.412-18.52-33.81-29.034-56.099-29.034
	h-34.436c-20.074,0-39.874-5.967-55.896-18.052C116.076,262.473,44.14,317.795,44.14,317.795V476.69h123.586
	c17.629,0,35.24-1.333,52.665-3.981l115.059-17.496c3.928,0,7.742-0.459,11.432-1.28c0.062-0.009,0.115-0.018,0.177-0.026
	c9.313-1.306,17.823-6.02,24.62-12.526L505.82,336.914z"/>
<polygon style="fill:#4482C3;" points="0,503.172 44.138,503.172 44.138,291.31 0,291.31 "/>
<path style="fill:#F18D46;" d="M167.724,406.069c-4.882,0-8.828-3.955-8.828-8.828c0-22.113,16.499-35.31,44.138-35.31h85.786
	c4.882,0,8.828,3.955,8.828,8.828c0,4.873-3.946,8.828-8.828,8.828h-85.786c-26.483,0-26.483,13.286-26.483,17.655
	C176.552,402.114,172.606,406.069,167.724,406.069"/>
<g>
	<path style="fill:#4482C3;" d="M243.072,225.048L243.072,225.048c-17.24,17.726-45.18,17.726-62.42,0s-17.24-46.477,0-64.203
		l31.206-28.434l31.214,28.434C260.312,178.57,260.312,207.322,243.072,225.048"/>
	<path style="fill:#4482C3;" d="M419.624,225.048L419.624,225.048c-17.24,17.726-45.18,17.726-62.42,0s-17.24-46.477,0-64.203
		l31.206-28.434l31.214,28.434C436.864,178.57,436.864,207.322,419.624,225.048"/>
	<path style="fill:#4482C3;" d="M331.348,101.462L331.348,101.462c-17.24,17.726-45.18,17.726-62.42,0s-17.24-46.477,0-64.203
		l31.206-28.434l31.214,28.434C348.588,54.984,348.588,83.736,331.348,101.462"/>
</g>
<g>
</g>
<g>
</g>
<g>
</g>
<g>
</g>
<g>
</g>
<g>
</g>
<g>
</g>
<g>
</g>
<g>
</g>
<g>
</g>
<g>
</g>
<g>
</g>
<g>
</g>
<g>
</g>
<g>
</g>
</svg>
